<svg id="Layer_1" data-name="Layer 1" xmlns="http://www.w3.org/2000/svg" viewBox="0 0 385.28 66.31"><defs><style>.cls-1{fill:#fff27b;stroke:#323232;stroke-miterlimit:10;stroke-width:0.5px;}</style></defs><path class="cls-1" d="M157.5,27.57l-2.66-5.35H4.84L4.29,23,7,28.31H30.86V34c-2.66-.07-5.75-.15-9-.15C11.13,33.82,9,39.33,9,43.51c0,7,6,15.39,12.5,20.11l.59-.11,2.81-6.18c-7-3.82-10.2-6.17-10.2-10.19a5.81,5.81,0,0,1,2.46-4.81c1.72-1.28,4.46-2,10.47-2h3.17L30.7,61.55l6.21,1.8.55-.39L37.3,28.31H47.5l-.16,33.2,6.29,1.84.55-.39L54,28.31H90.66V33a23.81,23.81,0,0,0-9.77,3.51c-3.47-2.65-5.66-4.1-9.25-4.1-5.16,0-9.5,3.71-9.5,10.2,0,8.2,7.43,16.76,15.4,20.9l.5-.2L80,57.22c-7.58-2.5-11.53-5.67-11.53-10.75,0-4.49,3.29-8,7.11-8a6.38,6.38,0,0,1,2.78.62,15.61,15.61,0,0,0-2.89,6.72l5.19,3.56h.55c1.56-5.47,3.2-8,9.45-9.73L90.5,61.55l6.22,1.8.54-.39-.15-34.65H107.3l-.16,33.2,6.29,1.84L114,63l-.16-34.65h29.89v5.43a40.1,40.1,0,0,0-9.85-1.44c-8.12,0-12,4.29-12,9.45,0,2.15.82,4.76,3.24,7.85,3.25,4.06,7,5.86,11.21,5.86a14.52,14.52,0,0,0,7.39-2l-.16,8.12,6.21,1.8.55-.39-.16-34.65H157Zm-23.4,21.8c-4.06,0-6.06-2-6.06-4.15a6.26,6.26,0,0,1,3.36-5.5l6.25,9.18A13.51,13.51,0,0,1,134.1,49.37Zm9.69-6.61c0,1.84-.71,3.29-3,4.77l-6-9a18.78,18.78,0,0,1,3.13-.24,26.78,26.78,0,0,1,5.86.63Z"/><path class="cls-1" d="M220.22,28.31l.55-.74-2.66-5.35H198.94c-6.35-13.59-9.19-19.77-17.08-19.77a29.94,29.94,0,0,0-8.09,1.1l3,7.34h.16a26.94,26.94,0,0,1,7.57-1.09c5.67,0,7.47,4.68,10.3,12.42H170.3l-.55.74,2.66,5.35h21.48v5.74A29,29,0,0,0,185,32.53c-6.09,0-10.66,3.67-10.66,9.37,0,2.82,1.48,5.63,3.51,8,2.78,2.86,5.43,4.89,9.58,4.89a10.27,10.27,0,0,0,6.4-2l.08,0-.2,8.79,6.06,1.8.55-.39-.08-15.55c3.16-3.67,6.6-6.21,9.41-6.21,1.37,0,2,.67,2,2.11,0,3-2.5,7.35-5.85,11.52l5.82,4.5h.54c3-3.91,4.89-8.44,4.89-12.39a11.61,11.61,0,0,0-3.29-8.08,9.18,9.18,0,0,0-7.18-3.36,11,11,0,0,0-6.25,2.26l-.12-.07V28.31ZM194,44.17c-3,3.13-6.13,4.61-9.14,4.61-2.62,0-4.18-1-4.18-3.13,0-3.82,3-7.14,9.53-7.14a18.58,18.58,0,0,1,3.79.35Z"/><path class="cls-1" d="M381,27.57l-2.66-5.35H372.6c-6.35-13.59-9.19-19.77-17.08-19.77a29.94,29.94,0,0,0-8.09,1.1l3,7.34h.16a27,27,0,0,1,7.58-1.09c5.66,0,7.46,4.68,10.29,12.42h-71l-.1.14-.07-.14H245a5.58,5.58,0,0,1-.55-2.5c0-4.65,4.3-8.75,11.14-8.75,7,0,13.55,3.83,19.92,9.76H276l1.64-2.58C267.93,8.58,259.33,4.4,251.44,4.4c-9.1,0-13.51,5.75-13.51,11.06,0,2.38,1,4.45,3,6.76h-7.39L233,23l2.65,5.35h4.11l-.16,33.2,6.29,1.84.54-.39-.15-34.65H273v5.74a29.13,29.13,0,0,0-8.87-1.52c-6.09,0-10.66,3.67-10.66,9.37,0,2.82,1.48,5.63,3.51,8,2.78,2.86,5.43,4.89,9.57,4.89a10.28,10.28,0,0,0,6.41-2l.08,0-.2,8.79,6.06,1.8.54-.39-.07-15.55c3.16-3.67,6.6-6.21,9.41-6.21,1.37,0,2,.67,2,2.11,0,3-2.5,7.35-5.86,11.52l5.82,4.5h.55c3-3.91,4.88-8.44,4.88-12.39a11.6,11.6,0,0,0-3.28-8.08,9.2,9.2,0,0,0-7.19-3.36,11,11,0,0,0-6.25,2.26l-.11-.07V28.31h20l.1-.14.07.14h23.67V37a85.24,85.24,0,0,0-11.52-.94c-10.27,0-10.86,5.2-10.86,6.22,0,1.64,1.1,3.67,3.28,6s4,3.44,5.35,3.44a3.4,3.4,0,0,0,3.4-4,35.66,35.66,0,0,0-.35-4.29,22.42,22.42,0,0,1,5.7-.59c1.84,0,3.21,0,5,.2L323,61.55l6.21,1.8.55-.39-.16-34.65h10.19l-.15,33.2L346,63.35l.54-.39-.15-34.65h18.75a12.15,12.15,0,0,1,.31,3c0,2.89-.59,4.65-1.44,5.78-1.22-.12-3-.16-4.85-.16a4,4,0,0,0-3.67,1.65,4.12,4.12,0,0,0-.66,2.18,10.19,10.19,0,0,0,1.48,4c3.71,6.87,10,13.16,17.93,19.1h.59l3-6.64c-6-2.89-11.17-6.06-14.41-9.57,5-2.78,8.52-6.72,8.52-14.53a25.45,25.45,0,0,0-.43-4.81h9ZM273.08,44.17c-3,3.13-6.14,4.61-9.14,4.61-2.62,0-4.18-1-4.18-3.13,0-3.82,3-7.14,9.53-7.14a18.58,18.58,0,0,1,3.79.35Z"/></svg>