<?xml version="1.0" encoding="utf-8"?>
<!-- Generator: Adobe Illustrator 25.2.0, SVG Export Plug-In . SVG Version: 6.00 Build 0)  -->
<svg version="1.1" id="Layer_1" xmlns="http://www.w3.org/2000/svg" xmlns:xlink="http://www.w3.org/1999/xlink" x="0px" y="0px"
	 viewBox="0 0 600 272.2" style="enable-background:new 0 0 600 272.2;" xml:space="preserve">
<style type="text/css">
	.st0{fill:#FFFFFF;}
	.st1{fill:#73DCF4;}
	.st2{fill:#1595B7;}
	.st3{fill:#1EB4E7;}
	.st4{fill:#DDDDDD;}
</style>
<g>
	<g>
		<g>
			<g>
				<path class="st0" d="M461.7,79.7c35.9,0,65,29.1,65,65s-29.1,65-65,65s-65-29.1-65-65c0-28.4,18.2-52.5,43.5-61.4
					C446.9,80.9,454.2,79.7,461.7,79.7z"/>
				<polygon class="st0" points="392.1,75.8 444.2,84.3 416.8,102.9 				"/>
			</g>
			<g>
				<circle class="st1" cx="461.7" cy="144.7" r="58.2"/>
				<circle class="st2" cx="459.7" cy="146.7" r="56.2"/>
				
					<ellipse transform="matrix(0.7071 -0.7071 0.7071 0.7071 32.1157 368.5276)" class="st3" cx="460.9" cy="145.5" rx="55" ry="55"/>
				<g>
					<polygon class="st3" points="450,92.6 405.8,83.6 430.3,104.9 449.3,95.5 					"/>
					<g>
						<path class="st1" d="M405.8,83.6l35.1,11.3c0,0,3.5-2.1,6.5-2.8c0,0,8.8-2,15.5-1.6l-13-2.3l-9.9,2.3L405.8,83.6z"/>
						<polygon class="st2" points="427.1,102.1 427.9,101.4 405.8,83.6 						"/>
					</g>
				</g>
			</g>
		</g>
		<g>
			<g>
				<path class="st4" d="M478.5,165.5l-3.1-8.3h-26.8l-3.1,8.5c-1.2,3.3-2.3,5.5-3.1,6.7c-0.9,1.2-2.3,1.7-4.3,1.7
					c-1.7,0-3.2-0.6-4.5-1.8s-1.9-2.6-1.9-4.2c0-0.9,0.1-1.8,0.4-2.8s0.8-2.3,1.5-4l16.9-42.8c0.5-1.2,1.1-2.7,1.7-4.4
					c0.7-1.7,1.4-3.2,2.2-4.3c0.8-1.1,1.8-2.1,3-2.8c1.2-0.7,2.8-1.1,4.6-1.1c1.9,0,3.4,0.4,4.7,1.1c1.2,0.7,2.2,1.6,3,2.7
					s1.4,2.3,1.9,3.6s1.2,3,2,5.1l17.2,42.5c1.3,3.2,2,5.6,2,7.1s-0.6,2.9-1.9,4.2s-2.8,1.9-4.6,1.9c-1,0-1.9-0.2-2.7-0.6
					s-1.4-0.9-1.9-1.5s-1.1-1.6-1.6-3C479.4,167.7,478.9,166.5,478.5,165.5z M452.1,147.2h19.7l-9.9-27.2L452.1,147.2z"/>
			</g>
			<g>
				<path class="st0" d="M477.5,164.5l-3.1-8.3h-26.8l-3.1,8.5c-1.2,3.3-2.3,5.5-3.1,6.7c-0.9,1.2-2.3,1.7-4.3,1.7
					c-1.7,0-3.2-0.6-4.5-1.8s-1.9-2.6-1.9-4.2c0-0.9,0.1-1.8,0.4-2.8s0.8-2.3,1.5-4l16.9-42.8c0.5-1.2,1.1-2.7,1.7-4.4
					c0.7-1.7,1.4-3.2,2.2-4.3c0.8-1.1,1.8-2.1,3-2.8s2.8-1.1,4.6-1.1c1.9,0,3.4,0.4,4.7,1.1c1.2,0.7,2.2,1.6,3,2.7s1.4,2.3,1.9,3.6
					s1.2,3,2,5.1l17.2,42.5c1.3,3.2,2,5.6,2,7.1s-0.6,2.9-1.9,4.2s-2.8,1.9-4.6,1.9c-1,0-1.9-0.2-2.7-0.6c-0.8-0.4-1.4-0.9-1.9-1.5
					s-1.1-1.6-1.6-3C478.4,166.7,477.9,165.5,477.5,164.5z M451.1,146.2h19.7l-9.9-27.2L451.1,146.2z"/>
			</g>
		</g>
	</g>
</g>
</svg>
